<?xml version="1.0" standalone="no"?>
<!DOCTYPE svg PUBLIC "-//W3C//DTD SVG 20010904//EN"
 "http://www.w3.org/TR/2001/REC-SVG-20010904/DTD/svg10.dtd">
<svg version="1.0" xmlns="http://www.w3.org/2000/svg"
 width="237.000000pt" height="238.000000pt" viewBox="0 0 237.000000 238.000000"
 preserveAspectRatio="xMidYMid meet">

<g transform="translate(0.000000,238.000000) scale(0.100000,-0.100000)"
fill="#000000" stroke="none">
<path d="M104 2336 c-16 -7 -47 -33 -67 -57 l-37 -43 0 -1072 0 -1072 27 -34
c16 -18 35 -38 43 -45 12 -10 265 -12 1113 -13 l1099 0 30 32 c61 66 58 4 58
1135 0 998 -1 1035 -19 1071 -23 45 -66 87 -104 101 -19 8 -357 11 -1070 11
-846 -1 -1048 -3 -1073 -14z m2137 -114 l29 -32 0 -1028 c0 -958 -2 -1028 -18
-1048 -9 -12 -27 -27 -39 -33 -16 -8 -308 -11 -1035 -11 -939 0 -1015 1 -1038
17 -14 9 -30 24 -37 33 -10 11 -12 251 -13 1046 l0 1030 28 26 c15 14 36 28
47 31 11 3 476 4 1033 3 l1014 -1 29 -33z"/>
<path d="M440 2081 c-73 -23 -150 -91 -191 -171 -20 -37 -24 -60 -24 -130 0
-73 4 -92 27 -136 35 -67 91 -120 158 -153 l55 -26 715 0 c714 0 715 0 762 22
67 31 142 104 169 166 31 70 32 181 2 248 -27 60 -84 123 -142 157 l-46 27
-730 2 c-401 1 -741 -2 -755 -6z m1443 -111 c82 -31 133 -95 143 -182 19 -163
-117 -286 -245 -220 -40 19 -80 89 -80 137 -1 101 105 179 170 127 35 -29 19
-56 -27 -48 -48 10 -70 1 -84 -34 -29 -69 18 -143 89 -143 77 0 124 57 123
149 -1 131 -69 181 -258 191 l-101 6 -75 -71 c-41 -39 -99 -83 -129 -98 -53
-28 -56 -28 -227 -26 -129 1 -181 6 -209 17 -40 17 -105 67 -171 134 l-44 44
-102 -6 c-153 -8 -212 -35 -247 -112 -24 -51 -23 -99 0 -152 23 -50 58 -75
107 -75 72 0 117 66 94 137 -13 40 -35 49 -91 40 -40 -7 -40 -6 -37 21 6 52
79 57 137 8 62 -52 61 -151 -3 -221 -27 -30 -41 -36 -83 -40 -64 -7 -113 16
-152 69 -71 96 -43 267 52 323 72 43 84 44 754 44 619 1 644 0 696 -19z
m-1073 -289 c5 -11 10 -46 10 -79 0 -67 -13 -85 -57 -80 -28 3 -28 4 -31 76
-2 46 2 79 9 88 17 20 57 17 69 -5z m148 7 c16 -16 16 -140 0 -156 -7 -7 -21
-12 -33 -12 -35 0 -45 20 -45 90 0 70 10 90 45 90 12 0 26 -5 33 -12z m160 0
c16 -16 16 -140 0 -156 -7 -7 -21 -12 -33 -12 -35 0 -45 20 -45 90 0 70 10 90
45 90 12 0 26 -5 33 -12z m192 -61 c6 -88 -1 -107 -39 -107 -38 0 -51 23 -51
90 0 70 13 92 53 88 32 -3 32 -3 37 -71z m148 61 c7 -7 12 -40 12 -79 0 -75
-12 -92 -57 -87 -28 3 -28 4 -31 77 -2 41 -1 80 2 88 7 16 58 17 74 1z m162
-7 c14 -28 13 -124 -3 -145 -9 -12 -23 -17 -42 -14 -30 3 -30 3 -33 76 -2 46
2 79 9 88 17 20 57 17 69 -5z"/>
<path d="M762 1400 c-22 -21 -22 -24 -22 -355 0 -396 -6 -375 110 -375 l70 0
0 375 0 375 -68 0 c-55 0 -73 -4 -90 -20z"/>
<path d="M980 1045 l0 -375 50 0 50 0 0 375 0 375 -50 0 -50 0 0 -375z"/>
<path d="M1130 1045 l0 -375 55 0 55 0 0 375 0 375 -55 0 -55 0 0 -375z"/>
<path d="M1297 1413 c-4 -3 -7 -172 -7 -375 l0 -368 50 0 50 0 0 375 0 375
-43 0 c-24 0 -47 -3 -50 -7z"/>
<path d="M1450 1045 l0 -375 63 0 c53 0 67 4 85 23 22 23 22 28 22 354 l0 332
-26 20 c-20 16 -41 21 -85 21 l-59 0 0 -375z"/>
<path d="M520 570 l0 -50 665 0 665 0 0 50 0 50 -665 0 -665 0 0 -50z"/>
<path d="M247 472 c-13 -14 -17 -39 -17 -108 0 -49 4 -94 8 -100 22 -33 46
-34 950 -34 1059 0 952 -15 952 129 0 62 -4 93 -16 109 l-15 22 -923 0 c-881
0 -924 -1 -939 -18z"/>
</g>
</svg>
